<svg id="Isolation_Mode" data-name="Isolation Mode" xmlns="http://www.w3.org/2000/svg" viewBox="0 0 92 72.5"><defs><style>.cls-1{fill:#333;}</style></defs><title>icons</title><path class="cls-1" d="M55.13,67.43h-3.2L50.16,62.1H36.67l-2,5.33h-3c-1.57,0-2.84.55-2.84,1.22v1.13c0,0.67,1.27,1.22,2.84,1.22H55.13C56.7,71,58,70.46,58,69.79V68.65C58,68,56.7,67.43,55.13,67.43Z"/><path class="cls-1" d="M73.13,44.41h12a1.17,1.17,0,0,0,1.17-1.17V24.44a1.17,1.17,0,0,0-1.17-1.17h-12A1.17,1.17,0,0,0,72,24.44v18.8A1.17,1.17,0,0,0,73.13,44.41Zm6-1.15a1.13,1.13,0,1,1,1.13-1.13A1.13,1.13,0,0,1,79.11,43.27Zm-5.7-18.53H84.79v15H73.42v-15Z"/><path class="cls-1" d="M88.72,47.88H68.24V25.32a2.84,2.84,0,0,0-2.84-2.84h-44a2.84,2.84,0,0,0-2.84,2.84V58.56a2.84,2.84,0,0,0,2.84,2.84h40.1v8.31a1.8,1.8,0,0,0,1.8,1.8H88.72a1.8,1.8,0,0,0,1.8-1.8v-20A1.8,1.8,0,0,0,88.72,47.88Zm-25.21,0H63.29a1.8,1.8,0,0,0-1.8,1.8v7H23.29V27.21H63.51V47.88ZM76,70.7a1.06,1.06,0,1,1,1.06-1.06A1.06,1.06,0,0,1,76,70.7Zm12.23-3H64.1V50.13H88.27v17.6Z"/><polygon class="cls-1" points="4.83 19.26 3.93 17.43 3.02 19.26 1 19.55 2.46 20.98 2.12 22.99 3.93 22.04 5.73 22.99 5.39 20.98 6.85 19.55 4.83 19.26"/><polygon class="cls-1" points="11.45 4.07 10.4 1.96 9.36 4.07 7.02 4.41 8.71 6.06 8.31 8.39 10.4 7.29 12.49 8.39 12.09 6.06 13.78 4.41 11.45 4.07"/><polygon class="cls-1" points="24.55 13.22 28.52 11.13 32.49 13.22 31.74 8.8 34.95 5.67 30.51 5.02 28.52 1 26.54 5.02 22.1 5.67 25.31 8.8 24.55 13.22"/></svg>