<?xml version="1.0" encoding="utf-8"?>
<!-- Generator: Adobe Illustrator 18.1.1, SVG Export Plug-In . SVG Version: 6.00 Build 0)  -->
<svg version="1.1" id="Layer_1" xmlns="http://www.w3.org/2000/svg" xmlns:xlink="http://www.w3.org/1999/xlink" x="0px" y="0px"
	 viewBox="0 0 120 100" enable-background="new 0 0 120 100" xml:space="preserve">
<g>
	<g>
		<path fill="#663494" d="M76.923,52.332c-0.38-6.133-4.596-4.026-4.596-4.026s0.56-2.337-2.66-7.841
			c-5.027-8.576-17.701-9.893-17.701-9.893l-0.05-6.611c0,0,1.866-0.26,3.454-1.588c1.98-1.657,1.622-3.902,1.622-3.902H45.101
			c-0.515,3.435,5.161,5.655,5.161,5.655v6.589c0,0-8.667,0.285-14.251,5.588c-5.077,4.811-6.407,11.428-6.407,11.428
			s-1.409-0.123-2.108,0.193c-1.023,0.461-2.684,0.768-2.299,7.665c0.381,6.896,5.301,5.203,5.301,5.203s0.425,2.175,2.745,5.334
			c5.551,7.567,14.726,8.344,14.726,8.344s0.369,1.11,0.219,2.002c-0.191,1.149-0.102,1.73-1.465,2.613
			c-1.107,0.711-3.204,0.478-5.2,1.971c-2.287,1.72-1.57,5.379-1.57,5.379h22.222c0,0,0.548-2.938-1.034-4.663
			c-1.582-1.725-5.864-2.616-6.82-3.576c-0.957-0.958-0.576-3.829-0.576-3.829s2.873,0.19,8.43-2.684
			c5.553-2.874,9.5-10.427,9.5-10.427s0.413-0.086,2.633-0.796C75.408,60.106,77.309,58.462,76.923,52.332z M43.06,59.286
			c-2.314,0-4.188-1.878-4.188-4.187c0-2.315,1.874-4.191,4.188-4.191c2.314,0,4.194,1.876,4.194,4.191
			C47.254,57.408,45.374,59.286,43.06,59.286z M58.999,59.286c-2.309,0-4.187-1.878-4.187-4.187c0-2.315,1.878-4.191,4.187-4.191
			c2.314,0,4.194,1.876,4.194,4.191C63.193,57.408,61.313,59.286,58.999,59.286z"/>
	</g>
	<path fill="#663494" d="M74.321,20.907l-0.568,3.43c2.877,1.034,5.481,2.919,7.391,5.589c1.908,2.669,2.851,5.742,2.902,8.8
		l3.43,0.569c0.065-3.937-1.08-7.925-3.541-11.366C81.474,24.489,78.068,22.115,74.321,20.907z M75.539,13.567l-0.563,3.407
		c4.746,1.398,9.081,4.325,12.177,8.653c3.096,4.328,4.465,9.376,4.257,14.321l3.405,0.565c0.34-5.818-1.224-11.783-4.872-16.881
		C86.295,18.533,81.155,15.126,75.539,13.567z"/>
</g>
</svg>
