<?xml version="1.0" encoding="utf-8"?>
<!-- Generator: Adobe Illustrator 18.1.1, SVG Export Plug-In . SVG Version: 6.00 Build 0)  -->
<svg version="1.1" id="Layer_1" xmlns="http://www.w3.org/2000/svg" xmlns:xlink="http://www.w3.org/1999/xlink" x="0px" y="0px"
	 viewBox="0 0 120 100" enable-background="new 0 0 120 100" xml:space="preserve">
<g>
	<path fill="#663494" d="M62.092,72.878v1.217c0.624,0.452,0.984,1.227,0.878,2.044c-0.156,1.19-1.254,2.029-2.441,1.872
		c-1.189-0.158-2.033-1.252-1.871-2.445c0.066-0.499,0.3-0.935,0.635-1.266v-1.307c-1.022,0.545-1.719,1.622-1.719,2.86
		c0,1.788,1.453,3.242,3.238,3.242c1.786,0,3.245-1.454,3.245-3.242C64.057,74.521,63.246,73.375,62.092,72.878z"/>
	<rect x="60.157" y="72.102" fill="#663494" width="1.091" height="4.461"/>
	<path fill="#663494" d="M55.636,50.869c0,0-0.097-0.583-0.291-1.554c-0.194-0.971-1.263-2.33-3.204-3.107
		c-1.941-0.777-6.118-0.097-6.118-0.097C49.615,54.268,55.636,50.869,55.636,50.869z"/>
	<path fill="#663494" d="M65.022,50.941c-0.394,1.036-0.609,1.66-0.609,1.66s6.011,4.864,11.486-3.466c0,0-4.481-1.525-6.767-1.027
		C66.848,48.606,65.416,49.906,65.022,50.941z"/>
	<path fill="#663494" d="M55.83,43.975c1.592,1.858,2.622,12.506,2.792,14.377h3.917c0.028-1.112,0.122-4.461,0.282-7.095
		c0.194-3.204,2.524-11.36,2.524-11.36s0.583,0,1.748-0.777c1.164-0.777,1.942-2.719,1.942-3.981c0-1.135-1.017-4.615-1.223-5.307
		c-0.203,0.252-0.854,0.882-2.66,2.395c-3.592,3.01-1.554,7.767-1.554,7.767s-0.291,1.456-1.457,3.884
		c-1.165,2.428-1.65,9.321-1.65,9.321s-0.486-1.456-0.972-4.175c-0.486-2.719-2.427-5.923-2.427-5.923s1.262-1.942,0.388-4.952
		c-0.877-3.021-5.728-4.757-5.728-4.757s-0.681-0.486-0.583,4.175C51.267,42.228,55.83,43.975,55.83,43.975z"/>
	<path fill="#663494" d="M67.773,29.702c0,0,0.016,0.052,0.039,0.13C68.012,29.582,67.773,29.702,67.773,29.702z"/>
	<path fill="#663494" d="M106.121,37.638c-0.643-2.223-2.974-3.508-5.197-2.865c-2.223,0.643-3.508,2.974-2.865,5.196
		c0.212,0.732,0.618,1.348,1.132,1.841l-4.869,6.644c-0.906-0.447-1.968-0.583-3.013-0.281c-1.166,0.337-2.064,1.145-2.571,2.152
		l-5.295-2.97V20.709c0-2.007-1.629-3.634-3.635-3.634H42.56c-2.007,0-3.635,1.627-3.635,3.634v46.33l-4.086-3.192
		c0.135-0.412,0.227-0.843,0.227-1.299c0-2.314-1.882-4.196-4.196-4.196c-2.314,0-4.196,1.882-4.196,4.196
		c0,0.587,0.123,1.145,0.342,1.653l-6.672,5.145c-0.688-0.493-1.524-0.791-2.433-0.791c-2.314,0-4.196,1.882-4.196,4.196
		c0,2.314,1.882,4.196,4.196,4.196s4.196-1.882,4.196-4.196c0-0.762-0.219-1.467-0.576-2.083l6.523-5.03
		c0.746,0.681,1.729,1.107,2.816,1.107c1.214,0,2.301-0.526,3.068-1.354l4.988,3.897V79.29c0,2.009,1.629,3.635,3.635,3.635h37.249
		c2.007,0,3.635-1.627,3.635-3.635V49.356l4.857,2.704c-0.015,0.433,0.016,0.873,0.143,1.311c0.643,2.223,2.974,3.508,5.197,2.865
		c2.223-0.643,3.508-2.974,2.865-5.196c-0.163-0.564-0.436-1.066-0.787-1.493l4.98-6.796c0.798,0.283,1.684,0.336,2.557,0.084
		C105.479,42.192,106.764,39.861,106.121,37.638z M17.909,75.284c-1.398,0-2.534-1.137-2.534-2.534c0-1.398,1.137-2.534,2.534-2.534
		c0.699,0,1.332,0.284,1.791,0.743l0.359,0.465c0.24,0.387,0.385,0.839,0.385,1.326C20.443,74.148,19.306,75.284,17.909,75.284z
		 M30.868,65.082c-1.398,0-2.534-1.137-2.534-2.534s1.137-2.534,2.534-2.534c1.398,0,2.534,1.137,2.534,2.534
		S32.266,65.082,30.868,65.082z M60.813,80.978c-3.058,0-5.54-2.482-5.54-5.541c0-3.062,2.482-5.543,5.54-5.543
		c3.061,0,5.544,2.481,5.544,5.543C66.356,78.495,63.874,80.978,60.813,80.978z M78.898,68.395H43.469V21.62h35.429V68.395z
		 M93.179,54.64c-1.343,0.388-2.751-0.388-3.139-1.731c-0.388-1.343,0.388-2.751,1.731-3.139c1.343-0.388,2.751,0.388,3.139,1.731
		C95.298,52.843,94.522,54.251,93.179,54.64z M102.795,41.239c-0.671,0.194-1.359,0.097-1.927-0.216l-0.474-0.347
		c-0.337-0.305-0.602-0.699-0.738-1.167c-0.388-1.343,0.388-2.751,1.731-3.139c1.343-0.388,2.751,0.388,3.139,1.731
		C104.914,39.442,104.137,40.85,102.795,41.239z"/>
</g>
</svg>
