<svg id="Isolation_Mode" data-name="Isolation Mode" xmlns="http://www.w3.org/2000/svg" viewBox="0 0 92 72.5"><defs><style>.cls-1{fill:#333;}</style></defs><title>icons</title><path class="cls-1" d="M90.54,59.56H87.06v-33a3,3,0,0,0-3-3H40.86V11.67a2.92,2.92,0,0,0-2.92-2.92H4.85a2.92,2.92,0,0,0-2.92,2.92V39.06A2.92,2.92,0,0,0,4.85,42H31.26V38.33H5.58V16.66H37.21v6.87H34.34a3,3,0,0,0-3,3v33H27.7s0,0.08,0,.13V66a3,3,0,0,0,3,3H87.52a3,3,0,0,0,3-3V59.68S90.54,59.6,90.54,59.56ZM29,14.55H26.06V11.74H29v2.81Zm4.06,0H30.12V11.74H33v2.81Zm4.18,0H34.3V11.74h2.91v2.81ZM66.26,64.69H51.76V63.27h14.5v1.43Zm17-5.21H35.1V27.31H83.27V59.48h0Z"/><polygon class="cls-1" points="44.09 44.64 47.69 44.64 47.69 48.69 49.88 48.69 49.88 39.02 47.69 39.02 47.69 42.73 44.09 42.73 44.09 39.02 41.91 39.02 41.91 48.69 44.09 48.69 44.09 44.64"/><polygon class="cls-1" points="53.67 48.69 55.85 48.69 55.85 40.85 58.49 40.85 58.49 39.02 51.06 39.02 51.06 40.85 53.67 40.85 53.67 48.69"/><path class="cls-1" d="M61.59,45c0.06-1.21.12-2.7,0.16-4h0c0.24,1.26.56,2.64,0.88,3.79l1,3.73h1.71l1.18-3.77c0.37-1.13.77-2.51,1.09-3.74h0c0,1.41,0,2.81.09,4l0.16,3.7h2.12L69.54,39H66.67l-1,3.21c-0.33,1.08-.66,2.35-0.92,3.47H64.67c-0.22-1.13-.5-2.34-0.82-3.46L62.91,39H60l-0.62,9.67h2Z"/><polygon class="cls-1" points="77.78 46.85 73.93 46.85 73.93 39.02 71.75 39.02 71.75 48.69 77.78 48.69 77.78 46.85"/><polygon class="cls-1" points="15.12 25.29 15.12 24.06 9.54 26.65 9.54 27.65 15.12 30.23 15.12 29 10.9 27.16 10.9 27.14 15.12 25.29"/><polygon class="cls-1" points="18.48 31.02 20.96 22.61 19.79 22.61 17.3 31.02 18.48 31.02"/><polygon class="cls-1" points="22.95 29 22.95 30.23 28.53 27.68 28.53 26.61 22.95 24.06 22.95 25.29 27.27 27.14 27.27 27.16 22.95 29"/><path class="cls-1" d="M49.25,12.28l-0.87.87,1.95,1.94,0.88-.88a6.6,6.6,0,0,0,2.16.9v1.09h2.75V15.15a6.65,6.65,0,0,0,2.28-.91l0.84,0.84,1.94-1.94-0.82-.81a6.54,6.54,0,0,0,1-2.22h1.19V7.34H61.32a6.55,6.55,0,0,0-1-2.29l0.87-.87L59.3,2.23l-0.88.88a6.63,6.63,0,0,0-2.31-.93v-1H53.36V2.22a6.62,6.62,0,0,0-2.19.92l-0.93-.93L48.3,4.15l0.93,0.93a6.54,6.54,0,0,0-.93,2.26H47v2.75h1.27A6.56,6.56,0,0,0,49.25,12.28ZM54.81,4a4.69,4.69,0,1,1-4.73,4.69A4.72,4.72,0,0,1,54.81,4Z"/><path class="cls-1" d="M54.77,12.22a3.54,3.54,0,1,0-3.58-3.54A3.56,3.56,0,0,0,54.77,12.22Zm0-5.93a2.39,2.39,0,1,1-2.43,2.39A2.41,2.41,0,0,1,54.77,6.29Z"/><path class="cls-1" d="M62.08,11.89v1.67h0.77a4,4,0,0,0,.57,1.34l-0.53.53,1.18,1.18,0.54-.54a4.08,4.08,0,0,0,1.31.55v0.66H67.6V16.64A4.05,4.05,0,0,0,69,16.09L69.5,16.6l1.18-1.18-0.5-.5a3.94,3.94,0,0,0,.58-1.35h0.73V11.89H70.78a4,4,0,0,0-.58-1.4L70.73,10,69.54,8.77,69,9.31a4,4,0,0,0-1.41-.57V8.11H65.92V8.76a4,4,0,0,0-1.33.56L64,8.76,62.84,9.94l0.57,0.57a4,4,0,0,0-.57,1.38H62.08Zm4.73-2.05a2.86,2.86,0,1,1-2.88,2.86A2.87,2.87,0,0,1,66.81,9.83Z"/><ellipse class="cls-1" cx="66.78" cy="12.7" rx="0.78" ry="0.75"/></svg>