<?xml version="1.0" encoding="utf-8"?>
<!-- Generator: Adobe Illustrator 18.1.1, SVG Export Plug-In . SVG Version: 6.00 Build 0)  -->
<svg version="1.1" id="Layer_1" xmlns="http://www.w3.org/2000/svg" xmlns:xlink="http://www.w3.org/1999/xlink" x="0px" y="0px"
	 viewBox="0 0 120 100" enable-background="new 0 0 120 100" xml:space="preserve">
<g>
	<path fill="#663494" d="M38.954,56.56c2.539,0,4.606-2.064,4.606-4.606c0-0.938-0.283-1.808-0.765-2.539l9.239-6.918
		c0.822,0.755,1.908,1.218,3.107,1.218c0.984,0,1.892-0.313,2.644-0.838l8.355,7.223c-0.431,0.698-0.682,1.517-0.682,2.393
		c0,2.544,2.07,4.611,4.609,4.611c2.539,0,4.609-2.067,4.609-4.611c0-1.167-0.445-2.237-1.164-3.051l7.188-10.497
		c0.531,0.216,1.113,0.334,1.719,0.334c2.536,0,4.606-2.064,4.606-4.606c0-2.539-2.07-4.606-4.606-4.606
		c-2.541,0-4.611,2.067-4.611,4.606c0,1.164,0.437,2.223,1.151,3.035l-7.196,10.508c-0.525-0.21-1.097-0.329-1.695-0.329
		c-0.884,0-1.711,0.259-2.415,0.693l-8.446-7.301c0.345-0.647,0.542-1.388,0.542-2.172c0-2.539-2.064-4.606-4.606-4.606
		c-2.539,0-4.609,2.067-4.609,4.606c0,0.574,0.108,1.116,0.302,1.622l-9.63,7.207c-0.668-0.375-1.434-0.59-2.25-0.59
		c-2.541,0-4.609,2.07-4.609,4.609C34.346,54.495,36.413,56.56,38.954,56.56z M82.418,31.83c1.571,0,2.846,1.272,2.846,2.843
		c0,1.574-1.275,2.846-2.846,2.846c-1.574,0-2.851-1.272-2.851-2.846C79.566,33.102,80.844,31.83,82.418,31.83z M70.066,49.65
		c1.571,0,2.849,1.272,2.849,2.843c0,1.577-1.277,2.849-2.849,2.849c-1.574,0-2.846-1.272-2.846-2.849
		C67.22,50.922,68.492,49.65,70.066,49.65z M55.141,36.261c1.571,0,2.846,1.275,2.846,2.846c0,1.577-1.275,2.849-2.846,2.849
		c-1.571,0-2.846-1.272-2.846-2.849C52.295,37.535,53.569,36.261,55.141,36.261z M38.954,49.108c1.569,0,2.843,1.272,2.843,2.846
		c0,1.569-1.275,2.846-2.843,2.846c-1.574,0-2.846-1.277-2.846-2.846C36.108,50.38,37.38,49.108,38.954,49.108z"/>
	<path fill="#663494" d="M19.186,15.492v10.225h7.638V69.62h32.845v7.15c-1.641,0.539-2.822,2.016-2.822,3.762
		c0,2.194,1.876,3.975,4.183,3.975c2.31,0,4.183-1.781,4.183-3.975c0-1.773-1.218-3.269-2.894-3.787V69.62h31.794V25.717h6.703
		V15.492H19.186z M63.159,80.533c0,1.062-0.954,1.924-2.129,1.924c-1.178,0-2.132-0.862-2.132-1.924c0-1.065,0.954-1.93,2.132-1.93
		C62.205,78.603,63.159,79.468,63.159,80.533z M88.967,64.475H31.968V26.194h56.998V64.475z"/>
</g>
</svg>
