<?xml version="1.0" encoding="utf-8"?>
<!-- Generator: Adobe Illustrator 18.1.1, SVG Export Plug-In . SVG Version: 6.00 Build 0)  -->
<svg version="1.1" id="Layer_1" xmlns="http://www.w3.org/2000/svg" xmlns:xlink="http://www.w3.org/1999/xlink" x="0px" y="0px"
	 viewBox="0 0 120 100" enable-background="new 0 0 120 100" xml:space="preserve">
<g>
	<path fill="#663494" d="M60.76,76.294h-4.118l-2.275-6.862H37.014l-2.562,6.862h-3.833c-2.017,0-3.654,0.706-3.654,1.574v1.46
		c0,0.868,1.637,1.574,3.654,1.574H60.76c2.019,0,3.654-0.706,3.654-1.574v-1.46C64.413,77,62.779,76.294,60.76,76.294z"/>
	<path fill="#663494" d="M99.311,19.476H83.926c-0.829,0-1.501,0.671-1.501,1.501v24.197c0,0.83,0.672,1.502,1.501,1.502h15.385
		c0.829,0,1.503-0.672,1.503-1.502V20.977C100.814,20.147,100.14,19.476,99.311,19.476z M91.629,45.199c-0.8,0-1.45-0.65-1.45-1.452
		c0-0.802,0.649-1.452,1.45-1.452c0.803,0,1.455,0.65,1.455,1.452C93.083,44.548,92.431,45.199,91.629,45.199z M98.937,40.675H84.3
		V21.353h14.637V40.675z"/>
	<circle fill="#663494" cx="87.623" cy="79.013" r="1.779"/>
	<path fill="#663494" d="M19.787,62.445V24.542h51.756v27.006h6.089V22.106c0-2.017-1.634-3.653-3.653-3.653h-56.63
		c-2.017,0-3.653,1.636-3.653,3.653v42.774c0,2.018,1.637,3.653,3.653,3.653h51.8v-6.089H19.787z"/>
	<path fill="#663494" d="M103.986,51.14H77.429H71.34h-0.078c-1.278,0-2.316,1.038-2.316,2.318v8.579v6.089v11.105
		c0,1.278,1.038,2.317,2.316,2.317h32.724c1.28,0,2.318-1.038,2.318-2.317V53.458C106.305,52.178,105.266,51.14,103.986,51.14z
		 M87.672,80.508c-0.755,0-1.367-0.614-1.367-1.369c0-0.756,0.612-1.369,1.367-1.369c0.757,0,1.37,0.613,1.37,1.369
		C89.042,79.894,88.43,80.508,87.672,80.508z M103.407,76.69H72.305v-8.564V54.037h5.124h25.978V76.69z"/>
</g>
</svg>
