<?xml version="1.0" encoding="utf-8"?>
<!-- Generator: Adobe Illustrator 18.1.1, SVG Export Plug-In . SVG Version: 6.00 Build 0)  -->
<svg version="1.1" id="Layer_1" xmlns="http://www.w3.org/2000/svg" xmlns:xlink="http://www.w3.org/1999/xlink" x="0px" y="0px"
	 viewBox="0 0 120 100" enable-background="new 0 0 120 100" xml:space="preserve">
<g>
	<rect x="29.873" y="58.57" fill="#663494" width="37.228" height="3.238"/>
	<rect x="29.873" y="68.35" fill="#663494" width="37.228" height="3.237"/>
	<path fill="#663494" d="M100.097,19.958l-6.623-3.382c-0.905-0.463-2.015-0.103-2.48,0.803l-2.51,4.922l9.906,5.058l2.513-4.922
		C101.365,21.53,101.005,20.421,100.097,19.958z"/>
	<path fill="#663494" d="M73.036,52.548l1.5,0.765c0.007-0.017,0.015-0.034,0.023-0.051L87.07,28.761
		c0.348-0.679,1.18-0.95,1.858-0.603c0.68,0.347,0.95,1.18,0.603,1.859L77.021,54.518c-0.01,0.017-0.02,0.033-0.03,0.049l1.823,0.93
		c0.007-0.018,0.015-0.034,0.023-0.051l12.509-24.501c0.348-0.68,1.18-0.95,1.86-0.603c0.68,0.347,0.95,1.18,0.603,1.859
		L81.297,56.702c-0.007,0.017-0.017,0.032-0.028,0.049l1.675,0.855l14.955-29.29l-9.906-5.058L73.036,52.548z"/>
	<path fill="#663494" d="M72.863,65.457c-0.958-0.49-2.025-0.541-2.973-0.229l-0.055,6.069l4.898-3.736
		C74.406,66.681,73.764,65.917,72.863,65.457z"/>
	<path fill="#663494" d="M76.636,68.112l-0.945,0.721v10.021H23.669V50.503h48.627l7.678-15.038c-0.655-1.164-1.9-1.952-3.33-1.952
		h-53.93c-2.108,0-3.818,1.71-3.818,3.819v42.476c0,2.108,1.71,3.818,3.818,3.818h53.93c2.11,0,3.818-1.71,3.818-3.818V65.194
		L76.636,68.112L76.636,68.112z M68.093,38.794h6.171v5.947h-6.171V38.794z M59.237,38.794h6.173v5.947h-6.173V38.794z
		 M50.633,38.794h6.173v5.947h-6.173V38.794z"/>
	<path fill="#663494" d="M69.948,58.599l-0.052,5.826c1.073-0.288,2.25-0.196,3.318,0.348c1.003,0.512,1.74,1.343,2.155,2.305
		l4.486-3.421l2.488-4.871l-9.906-5.058L69.948,58.599z"/>
</g>
</svg>
