<?xml version="1.0" encoding="utf-8"?>
<!-- Generator: Adobe Illustrator 18.1.1, SVG Export Plug-In . SVG Version: 6.00 Build 0)  -->
<svg version="1.1" id="Layer_1" xmlns="http://www.w3.org/2000/svg" xmlns:xlink="http://www.w3.org/1999/xlink" x="0px" y="0px"
	 viewBox="0 0 200 110" enable-background="new 0 0 200 110" xml:space="preserve">
<g>
	<path fill="#663494" d="M89.064,4.48H10.594c-2.541,0-4.619,2.079-4.619,4.619v78.468c0,2.54,2.078,4.619,4.619,4.619h33.343
		c2.541,0,6.343,1.16,8.452,2.577l16.719,11.241c2.108,1.417,3.884,0.499,3.947-2.04l0.177-7.16
		c0.063-2.539,2.192-4.618,4.733-4.618h11.098c2.541,0,4.619-2.079,4.619-4.619V9.099C93.682,6.559,91.605,4.48,89.064,4.48z
		 M28.691,69.925c-6.517,0-9.891-3.861-9.891-10.615v-2.592h6.273v3.013c0,3.016,1.323,4.105,3.434,4.105
		c2.111,0,3.437-1.089,3.437-4.105c0-8.685-12.964-10.313-12.964-22.375c0-6.754,3.317-10.615,9.767-10.615
		c6.453,0,9.773,3.861,9.773,10.615v1.326h-6.273v-1.747c0-3.016-1.206-4.162-3.317-4.162s-3.317,1.146-3.317,4.162
		c0,8.685,12.967,10.311,12.967,22.375C38.581,66.063,35.201,69.925,28.691,69.925z M54.985,69.444L54.3,64.858l-0.015-0.081
		l-0.463-2.992l-0.89-5.732l-3.194-21.349L46.932,53.44L46.92,53.5l-0.376,2.553l-0.848,5.732l-1.146,7.659h-6.092l6.757-42.219
		h9.707l6.757,42.219H54.985z M72.475,55.448v13.995h-6.637V55.448l-8.381-28.223h6.934l5.067,19.238l5.064-19.238h6.336
		L72.475,55.448z"/>
</g>
<g>
	<path fill="#58595B" d="M106.518,27.224h0.887l4.58,17.149l4.631-12.699h0.833l4.658,12.699l4.553-17.149h0.887l-4.998,18.71
		h-0.884l-4.631-13.037L112.4,45.934h-0.884L106.518,27.224z"/>
	<path fill="#58595B" d="M129.887,27.224h11.424v0.832h-10.537v7.729h8.351v0.807h-8.351v8.509h10.799v0.833h-11.686V27.224z"/>
	<path fill="#58595B" d="M144.643,27.224h5.127c2.325,0,3.936,0.269,4.839,0.807c1.335,0.78,2.006,2.055,2.006,3.825
		c0,2.1-1.068,3.522-3.203,4.268c2.776,0.538,4.165,2.143,4.165,4.814c0,1.839-0.713,3.201-2.135,4.085
		c-1.004,0.608-2.706,0.911-5.1,0.911h-5.699V27.224z M149.872,35.864c3.903,0,5.855-1.353,5.855-4.06
		c0-1.579-0.631-2.655-1.897-3.227c-0.833-0.382-2.171-0.573-4.008-0.573h-4.294v7.859H149.872z M150.158,45.154
		c2.048,0,3.452-0.156,4.216-0.469c1.528-0.624,2.291-1.925,2.291-3.903c0-1.7-0.704-2.879-2.108-3.539
		c-0.989-0.469-2.448-0.703-4.372-0.703h-4.658v8.614H150.158z"/>
	<path fill="#58595B" d="M108.446,50.911h4.294c2.758,0,4.76,0.304,6.011,0.91c2.758,1.388,4.138,4.208,4.138,8.457
		c0,4.32-1.38,7.131-4.138,8.431c-1.32,0.608-3.323,0.911-6.011,0.911h-4.294V50.911z M112.948,68.841
		c2.514,0,4.372-0.313,5.569-0.937c2.306-1.214,3.461-3.756,3.461-7.625c0-3.139-0.824-5.456-2.472-6.948
		c-0.782-0.694-1.813-1.162-3.097-1.405c-0.4-0.069-0.884-0.121-1.458-0.156c-0.571-0.035-1.239-0.052-2.003-0.052h-3.618v17.123
		H112.948z"/>
	<path fill="#58595B" d="M126.374,50.911h11.424v0.832h-10.537v7.729h8.351v0.807h-8.351v8.509h10.799v0.833h-11.686V50.911z"/>
	<path fill="#58595B" d="M141.025,63.922c0.105,1.631,0.638,2.927,1.6,3.891c0.965,0.963,2.279,1.444,3.942,1.444
		c1.459,0,2.673-0.364,3.645-1.092c1.11-0.798,1.666-1.891,1.666-3.279c0-1.44-0.58-2.524-1.744-3.253
		c-0.571-0.381-1.822-0.833-3.747-1.353c-0.018-0.017-0.129-0.052-0.34-0.104c-2.15-0.607-3.512-1.171-4.084-1.691
		c-0.884-0.798-1.329-1.831-1.329-3.097c0-1.596,0.556-2.819,1.666-3.669c1.025-0.816,2.343-1.223,3.957-1.223
		c1.75,0,3.158,0.477,4.216,1.431c1.092,0.954,1.681,2.307,1.768,4.06h-0.833c-0.036-1.509-0.547-2.689-1.534-3.539
		c-0.956-0.815-2.18-1.223-3.672-1.223c-1.386,0-2.505,0.347-3.356,1.041c-0.92,0.728-1.38,1.77-1.38,3.123
		c0,0.971,0.382,1.812,1.146,2.524c0.574,0.521,1.804,1.024,3.696,1.51c0.033,0.017,0.081,0.03,0.144,0.039
		c0.06,0.009,0.132,0.03,0.22,0.065c1.994,0.538,3.365,1.041,4.111,1.51c1.32,0.85,1.979,2.056,1.979,3.618
		c0,1.734-0.616,3.087-1.846,4.059c-1.128,0.868-2.586,1.301-4.372,1.301c-1.891,0-3.392-0.547-4.502-1.64
		c-1.128-1.058-1.753-2.541-1.873-4.45H141.025z"/>
	<path fill="#58595B" d="M156.172,50.911h0.857v18.71h-0.857V50.911z"/>
	<path fill="#58595B" d="M168.766,51.274c-2.412,0-4.258,0.928-5.542,2.785c-1.11,1.597-1.666,3.669-1.666,6.219
		c0,2.55,0.556,4.615,1.666,6.194c1.284,1.856,3.13,2.784,5.542,2.784c2.117,0,3.774-0.641,4.971-1.925
		c1.164-1.231,1.744-2.923,1.744-5.075V61.45h-6.168v-0.781h7.001c0.015,0.174,0.024,0.338,0.024,0.495c0,0.156,0,0.312,0,0.468
		c0,3.973-1.362,6.541-4.084,7.703c-1.095,0.451-2.255,0.677-3.488,0.677c-2.706,0-4.769-0.971-6.192-2.915
		c-1.284-1.752-1.928-4.024-1.928-6.818c0-2.81,0.635-5.083,1.901-6.818c1.422-1.978,3.494-2.967,6.219-2.967
		c1.684,0,3.133,0.356,4.345,1.067c1.32,0.781,2.213,1.935,2.682,3.461l-0.809,0.39C174.155,52.654,172.08,51.274,168.766,51.274z"
		/>
	<path fill="#58595B" d="M179.877,50.911h0.887l11.734,17.227V50.911h0.86v18.71h-0.86l-11.761-17.202v17.202h-0.86V50.911z"/>
</g>
</svg>
