<?xml version="1.0" encoding="utf-8"?>
<!-- Generator: Adobe Illustrator 18.1.1, SVG Export Plug-In . SVG Version: 6.00 Build 0)  -->
<svg version="1.1" id="Layer_1" xmlns="http://www.w3.org/2000/svg" xmlns:xlink="http://www.w3.org/1999/xlink" x="0px" y="0px"
	 viewBox="0 0 120 100" enable-background="new 0 0 120 100" xml:space="preserve">
<g>
	<path fill="#663494" d="M68.361,55.319c-0.636-0.584-1.463-0.962-2.373-1.033v5.98L68.361,55.319z"/>
	<path fill="#663494" d="M65.24,54.298c-0.924,0.102-1.754,0.522-2.376,1.149l2.376,4.759V54.298z"/>
	<path fill="#663494" d="M65.678,53.488c1.154,0,2.211,0.413,3.034,1.097l2.496-5.203v-5.59h-5.313v1.877
		c0.537,0.084,1.049,0.349,1.435,0.789c0.876,0.997,0.775,2.521-0.222,3.396c-0.999,0.875-2.521,0.775-3.395-0.223
		c-0.875-0.997-0.774-2.521,0.222-3.396c0.356-0.311,0.778-0.499,1.213-0.566v-1.877h-5.313v5.59l2.662,5.331
		C63.339,53.953,64.456,53.488,65.678,53.488z"/>
	<rect x="59.835" y="37.155" fill="#663494" width="11.356" height="5.716"/>
	<path fill="#663494" d="M73.835,61.235c-0.335,0.293-0.542,0.68-0.62,1.087h-4.947v-1.66h-5.497v1.66h-5.045
		c-0.062-0.326-0.207-0.641-0.443-0.909c-0.703-0.802-1.929-0.883-2.733-0.178c-0.801,0.704-0.882,1.93-0.179,2.733
		c0.705,0.803,1.929,0.883,2.733,0.179c0.329-0.288,0.535-0.665,0.616-1.064h5.05v2.42h5.497v-2.42h4.951
		c0.065,0.318,0.21,0.624,0.438,0.885c0.705,0.803,1.93,0.883,2.734,0.179c0.801-0.703,0.882-1.93,0.179-2.733
		C75.865,60.611,74.639,60.53,73.835,61.235z M67.346,64.581h-3.653v-2.995h3.653V64.581z"/>
	<path fill="#663494" d="M81.497,86.367h-4.27l-2.359-7.116H56.873l-2.656,7.116h-3.976c-2.092,0-3.789,0.731-3.789,1.633v1.512
		c0,0.902,1.697,1.632,3.789,1.632h31.256c2.094,0,3.789-0.731,3.789-1.632v-1.512C85.285,87.097,83.591,86.367,81.497,86.367z"/>
	<path fill="#663494" d="M95.399,28.227h-9.388l0.053-0.07H36.27c-2.092,0-3.789,1.696-3.789,3.788v42.163
		c0,1.921,1.437,3.492,3.291,3.738c0.29,0.071,0.59,0.12,0.903,0.12h58.723c2.092,0,3.789-1.697,3.789-3.788V32.016
		C99.188,29.923,97.491,28.227,95.399,28.227z M94.143,72.719l-56.616-0.022L37.493,33.35l44.521,0.074l0.024-0.03l12.138,0.026
		L94.143,72.719z"/>
	<polygon fill="#663494" points="41.917,20.283 45.63,18.332 49.343,20.283 48.634,16.149 51.638,13.221 47.486,12.618 45.63,8.856 
		43.773,12.618 39.622,13.221 42.626,16.149 	"/>
	<polygon fill="#663494" points="32.482,12.752 30.407,12.451 29.48,10.571 28.552,12.451 26.477,12.752 27.978,14.216 
		27.624,16.282 29.48,15.306 31.335,16.282 30.981,14.216 	"/>
	<polygon fill="#663494" points="23.754,25.799 23.059,24.392 22.365,25.799 20.812,26.024 21.936,27.12 21.671,28.666 
		23.059,27.936 24.448,28.666 24.183,27.12 25.306,26.024 	"/>
</g>
</svg>
