<?xml version="1.0" encoding="utf-8"?>
<!-- Generator: Adobe Illustrator 18.1.1, SVG Export Plug-In . SVG Version: 6.00 Build 0)  -->
<svg version="1.1" id="Layer_1" xmlns="http://www.w3.org/2000/svg" xmlns:xlink="http://www.w3.org/1999/xlink" x="0px" y="0px"
	 viewBox="0 0 120 100" enable-background="new 0 0 120 100" xml:space="preserve">
<g>
	<path fill="#663494" d="M60.434,66.36c-0.066,0.054-0.001,0.007-0.001,0.007S60.497,66.412,60.434,66.36z"/>
	<path fill="#663494" d="M80.644,43.968v-8.761H58.117l4.635-0.008H40.225v8.76c0,0-1.213,5.967,10.047,14.583
		c8.533,6.529,9.968,7.655,10.163,7.818c0.203-0.166,1.656-1.301,10.161-7.81C81.856,49.934,80.644,43.968,80.644,43.968z
		 M64.132,51.356l-3.697-1.943l-3.698,1.943l0.706-4.117l-2.992-2.916l4.134-0.6l1.849-3.746l1.848,3.746l4.134,0.6l-2.991,2.916
		L64.132,51.356z"/>
	<polygon fill="#663494" points="80.548,15.053 70.576,22.503 60.441,15.053 50.248,22.503 40.12,15.053 40.12,31.443 
		80.548,31.443 	"/>
	<path fill="#663494" d="M97.372,44.936h-0.726c0,19.243-15.655,34.901-34.9,34.901v0.726C81.39,80.563,97.372,64.58,97.372,44.936z
		"/>
	<path fill="#663494" d="M91.632,66.534c6.688,2.473,10.373-4.771,10.373-4.771C94.086,60.04,91.632,66.534,91.632,66.534z"/>
	<path fill="#663494" d="M89.704,63.249c4.366-5.636-1.439-11.328-1.439-11.328C84.247,58.962,89.704,63.249,89.704,63.249z"/>
	<path fill="#663494" d="M85.092,73.817c6.353,3.239,10.861-3.526,10.861-3.526C88.287,67.656,85.092,73.817,85.092,73.817z"/>
	<path fill="#663494" d="M84.218,58.637c-4.814,6.523,0.107,11.417,0.107,11.417C89.319,64.966,84.218,58.637,84.218,58.637z"/>
	<path fill="#663494" d="M95.954,58.327c6.981,1.453,9.549-6.261,9.549-6.261C97.415,51.54,95.954,58.327,95.954,58.327z"/>
	<path fill="#663494" d="M93.862,54.535c3.478-6.224-3.109-10.987-3.109-10.987C87.825,51.108,93.862,54.535,93.862,54.535z"/>
	<path fill="#663494" d="M96.995,43.639c5.067-6.392-1.499-12.976-1.499-12.976C90.807,38.663,96.995,43.639,96.995,43.639z"/>
	<path fill="#663494" d="M107.255,42.062c-8.103,0.258-8.899,7.154-8.899,7.154C105.444,49.986,107.255,42.062,107.255,42.062z"/>
	<path fill="#663494" d="M76.31,78.786c5.162,4.918,11.415-0.276,11.415-0.276C81.132,73.793,76.31,78.786,76.31,78.786z"/>
	<path fill="#663494" d="M76.649,74.96c6.24-3.449,3.161-10.972,3.161-10.972C73.334,68.864,76.649,74.96,76.649,74.96z"/>
	<path fill="#663494" d="M66.289,81.715c4.091,5.841,11.246,1.981,11.246,1.981C72,77.772,66.289,81.715,66.289,81.715z"/>
	<path fill="#663494" d="M67.376,78.033c6.797-2.151,5.261-10.135,5.261-10.135C65.326,71.4,67.376,78.033,67.376,78.033z"/>
	<path fill="#663494" d="M23.354,44.936h-0.726c0,19.643,15.982,35.627,35.625,35.627v-0.726
		C39.009,79.837,23.354,64.18,23.354,44.936z"/>
	<path fill="#663494" d="M28.367,66.534c0,0-2.453-6.494-10.373-4.771C17.994,61.763,21.68,69.007,28.367,66.534z"/>
	<path fill="#663494" d="M30.295,63.249c0,0,5.458-4.287,1.439-11.328C31.735,51.921,25.93,57.612,30.295,63.249z"/>
	<path fill="#663494" d="M24.047,70.291c0,0,4.509,6.765,10.861,3.526C34.908,73.817,31.713,67.656,24.047,70.291z"/>
	<path fill="#663494" d="M35.781,58.637c0,0-5.1,6.329-0.107,11.417C35.674,70.054,40.595,65.16,35.781,58.637z"/>
	<path fill="#663494" d="M24.046,58.327c0,0-1.461-6.787-9.549-6.261C14.496,52.066,17.065,59.779,24.046,58.327z"/>
	<path fill="#663494" d="M26.14,54.535c0,0,6.036-3.427,3.107-10.987C29.247,43.548,22.66,48.311,26.14,54.535z"/>
	<path fill="#663494" d="M24.504,30.664c0,0-6.566,6.583-1.499,12.976C23.005,43.639,29.193,38.663,24.504,30.664z"/>
	<path fill="#663494" d="M21.644,49.217c0,0-0.796-6.896-8.899-7.154C12.745,42.062,14.556,49.986,21.644,49.217z"/>
	<path fill="#663494" d="M32.275,78.51c0,0,6.253,5.194,11.415,0.276C43.69,78.786,38.868,73.793,32.275,78.51z"/>
	<path fill="#663494" d="M43.351,74.96c0,0,3.316-6.096-3.161-10.972C40.189,63.988,37.11,71.511,43.351,74.96z"/>
	<path fill="#663494" d="M42.466,83.696c0,0,7.154,3.86,11.245-1.981C53.711,81.715,48,77.772,42.466,83.696z"/>
	<path fill="#663494" d="M47.363,67.898c0,0-1.536,7.984,5.261,10.135C52.624,78.033,54.674,71.4,47.363,67.898z"/>
</g>
</svg>
