<?xml version="1.0" encoding="utf-8"?>
<!-- Generator: Adobe Illustrator 18.1.1, SVG Export Plug-In . SVG Version: 6.00 Build 0)  -->
<svg version="1.1" id="Layer_1" xmlns="http://www.w3.org/2000/svg" xmlns:xlink="http://www.w3.org/1999/xlink" x="0px" y="0px"
	 viewBox="0 0 120 100" enable-background="new 0 0 120 100" xml:space="preserve">
<g>
	<path fill="#663494" d="M65.804,52.742l-0.509,8.657c0.5-0.275,1.076-0.432,1.685-0.432h18.368c0.461,0,0.901,0.089,1.302,0.254
		l-0.527-8.857c5.214-4.824,8.658-12.661,8.658-19.366c0-10.54-8.517-19.09-19.023-19.09s-19.021,8.55-19.021,19.09
		C56.736,39.878,60.365,47.96,65.804,52.742z M75.757,17.914c8.284,0,15.014,6.764,15.014,15.083c0,5.656-3.026,12.412-7.37,16.423
		l-1.388,1.289l0.412,6.969H69.53l0.392-6.657l-1.47-1.291c-4.541-3.99-7.711-10.868-7.711-16.733
		C60.741,24.678,67.477,17.914,75.757,17.914z"/>
	<path fill="#663494" d="M85.347,62.03H66.979c-1.337,0-2.417,1.085-2.417,2.424c0,1.333,1.08,2.415,2.417,2.415h18.368
		c1.333,0,2.42-1.083,2.42-2.415C87.767,63.115,86.68,62.03,85.347,62.03z"/>
	<path fill="#663494" d="M84.455,67.578H67.584c-1.226,0-2.225,1.087-2.225,2.419c0,1.333,0.998,2.419,2.225,2.419h16.871
		c1.229,0,2.22-1.086,2.22-2.419C86.676,68.665,85.684,67.578,84.455,67.578z"/>
	<path fill="#663494" d="M82.983,73.206H69.105c-1.009,0-1.824,1.077-1.824,2.411c0,1.337,0.815,2.421,1.824,2.421h13.878
		c1.014,0,1.829-1.084,1.829-2.421C84.812,74.283,83.997,73.206,82.983,73.206z"/>
	<path fill="#663494" d="M85.881,34.928c0,2.42-0.799,4.653-2.152,6.47c2.313-2.011,3.768-4.945,3.768-8.214
		c0-6.067-5.012-10.986-11.2-10.986c-3.715,0-7.011,1.775-9.048,4.511c1.977-1.72,4.578-2.767,7.427-2.767
		C80.864,23.941,85.881,28.857,85.881,34.928z"/>
	<path fill="#663494" d="M35.951,40.509c-0.045-0.077-0.086-0.154-0.134-0.23c-1.547-2.491-5.007-3.144-7.729-1.456
		s-3.673,5.078-2.13,7.571c0.046,0.077,0.098,0.149,0.146,0.224L35.951,40.509z"/>
	
		<rect x="26.212" y="43.995" transform="matrix(-0.8498 0.527 -0.527 -0.8498 83.1481 66.5574)" fill="#663494" width="11.762" height="2.258"/>
	<polygon fill="#663494" points="42.882,73.671 53.063,79.234 52.749,67.572 	"/>
	<path fill="#663494" d="M27.969,49.635l14.493,23.362l9.718-6.029L37.685,43.605L27.969,49.635z M40.533,65.838
		c-0.382,0.24-0.908,0.082-1.175-0.346l-7.506-12.105c-0.266-0.427-0.171-0.965,0.211-1.203c0.381-0.236,0.905-0.079,1.17,0.346
		l7.508,12.107C41.007,65.067,40.911,65.601,40.533,65.838z M45.981,67.853c-0.692,0.427-1.564,0.269-1.951-0.355L33.107,49.892
		c-0.384-0.622-0.137-1.475,0.552-1.905c0.689-0.425,1.563-0.271,1.948,0.355L46.53,65.947
		C46.917,66.571,46.672,67.423,45.981,67.853z M38.074,48.219c0.382-0.238,0.905-0.081,1.172,0.348l7.511,12.103
		c0.264,0.427,0.17,0.966-0.213,1.203c-0.379,0.238-0.906,0.082-1.172-0.346l-7.509-12.105
		C37.599,48.992,37.694,48.454,38.074,48.219z"/>
	<path fill="#663494" d="M48.815,82.099c-0.421,0.224-0.855,0.435-1.271,0.562c-0.209,0.06-0.411,0.099-0.569,0.094
		c-0.164-0.009-0.231-0.053-0.278-0.113c-0.113-0.123-0.2-0.557-0.199-0.982c-0.007-0.444,0.062-0.86,0.105-1.415
		c0.019-0.266,0.022-0.535,0.003-0.822c-0.02-0.288-0.055-0.591-0.188-0.942c-0.067-0.171-0.168-0.363-0.329-0.543
		c-0.159-0.182-0.392-0.338-0.63-0.413c-0.485-0.156-0.87-0.077-1.181-0.005c-0.62,0.173-1.081,0.433-1.54,0.694
		c-0.452,0.264-0.87,0.552-1.283,0.841c-0.821,0.584-1.595,1.201-2.361,1.825l-1.138,0.942c-0.374,0.312-0.744,0.612-1.127,0.898
		c-0.764,0.572-1.556,1.105-2.382,1.535c-0.413,0.211-0.834,0.398-1.249,0.523c-0.206,0.062-0.413,0.106-0.596,0.12
		c-0.185,0.021-0.344-0.007-0.402-0.036c-0.043-0.029-0.051-0.007-0.076-0.134c-0.012-0.122,0.017-0.312,0.081-0.5
		c0.125-0.387,0.353-0.795,0.605-1.179c0.548-0.783,1.127-1.643,1.598-2.529c0.466-0.896,0.906-1.826,1.035-2.92
		c0.024-0.274,0.022-0.562-0.05-0.86c-0.068-0.296-0.231-0.607-0.488-0.822c-0.255-0.216-0.562-0.319-0.847-0.361
		c-0.082-0.012-0.149-0.017-0.206-0.021c-0.089-0.005-0.159-0.005-0.235,0.002c-0.147,0.01-0.288,0.034-0.42,0.067
		c-0.529,0.137-0.985,0.367-1.427,0.612c-0.441,0.247-0.857,0.519-1.266,0.802c-1.626,1.143-3.113,2.438-4.544,3.793l0.106,0.118
		c0.75-0.632,1.52-1.242,2.305-1.828c0.781-0.589,1.58-1.157,2.406-1.669c0.413-0.255,0.833-0.497,1.261-0.709
		c0.426-0.211,0.87-0.399,1.3-0.485c0.108-0.021,0.211-0.033,0.308-0.033c0.046-0.002,0.103,0.002,0.134,0.005
		c0.067,0.007,0.122,0.017,0.161,0.024c0.197,0.039,0.367,0.12,0.483,0.228c0.233,0.212,0.283,0.62,0.219,1.049
		c-0.134,0.865-0.569,1.741-1.045,2.558c-0.486,0.831-1.038,1.585-1.648,2.385c-0.303,0.427-0.586,0.867-0.79,1.408
		c-0.098,0.271-0.185,0.571-0.168,0.942c0.008,0.187,0.051,0.398,0.164,0.598c0.111,0.202,0.291,0.374,0.478,0.478
		c0.379,0.204,0.73,0.219,1.031,0.211c0.308-0.012,0.586-0.065,0.853-0.13c0.531-0.137,1.019-0.334,1.491-0.55
		c0.939-0.437,1.809-0.965,2.645-1.53c0.418-0.281,0.833-0.576,1.23-0.874l1.184-0.87c0.785-0.581,1.57-1.163,2.353-1.717
		c0.389-0.278,0.781-0.543,1.17-0.786c0.384-0.242,0.79-0.464,1.115-0.565c0.157-0.056,0.281-0.055,0.27-0.058
		c0.011,0.011,0.022,0.018,0.04,0.055c0.117,0.226,0.159,0.702,0.166,1.143c0.009,0.428-0.027,0.99,0.031,1.53
		c0.029,0.274,0.068,0.553,0.164,0.852c0.098,0.29,0.245,0.622,0.56,0.893c0.319,0.279,0.769,0.358,1.09,0.317
		c0.334-0.036,0.607-0.135,0.858-0.254c0.497-0.235,0.917-0.526,1.321-0.828c0.8-0.615,1.533-1.276,2.241-1.97l-0.099-0.128
		C50.499,81.121,49.668,81.65,48.815,82.099z"/>
</g>
</svg>
