<?xml version="1.0" encoding="utf-8"?>
<!-- Generator: Adobe Illustrator 18.1.1, SVG Export Plug-In . SVG Version: 6.00 Build 0)  -->
<svg version="1.1" id="Layer_1" xmlns="http://www.w3.org/2000/svg" xmlns:xlink="http://www.w3.org/1999/xlink" x="0px" y="0px"
	 viewBox="0 0 120 100" enable-background="new 0 0 120 100" xml:space="preserve">
<g>
	<path fill="#663494" d="M60.548,44.312c-0.489-0.09-0.994-0.144-1.509-0.144c-4.606,0-8.353,3.748-8.353,8.354
		c0,4.606,3.747,8.353,8.353,8.353s8.351-3.747,8.351-8.353c0-0.828-0.124-1.629-0.35-2.385l-10.017,4.621L60.548,44.312z"/>
	<path fill="#663494" d="M80.831,36.437c3.332,4.503,5.306,10.066,5.306,16.085c0,14.942-12.155,27.099-27.099,27.099
		c-14.942,0-27.1-12.156-27.1-27.099c0-14.944,12.158-27.1,27.1-27.1c5.061,0,9.804,1.399,13.864,3.825l4.285-4.698
		c-5.228-3.396-11.454-5.377-18.149-5.377c-18.419,0-33.35,14.931-33.35,33.349c0,18.417,14.931,33.348,33.35,33.348
		c18.414,0,33.348-14.931,33.348-33.348c0-7.86-2.727-15.078-7.274-20.777L80.831,36.437z"/>
	<polygon fill="#663494" points="71.616,44.685 65.556,39.156 62.464,42.546 59.135,52.408 68.525,48.077 	"/>
	<polygon fill="#663494" points="88.38,14.13 66.797,37.791 72.863,43.322 94.311,19.803 88.258,20.595 	"/>
	<path fill="#663494" d="M59.038,31.671c-11.498,0-20.851,9.354-20.851,20.851s9.352,20.849,20.851,20.849
		c11.497,0,20.849-9.353,20.849-20.849c0-4.184-1.244-8.082-3.375-11.351l-3.568,3.917L72.1,46.011
		c0.982,1.961,1.538,4.17,1.538,6.511c0,8.05-6.55,14.602-14.6,14.602c-8.053,0-14.602-6.552-14.602-14.602
		c0-8.053,6.549-14.603,14.602-14.603c1.797,0,3.519,0.331,5.11,0.927l0.884-0.972l3.542-3.882
		C65.713,32.511,62.474,31.671,59.038,31.671z"/>
</g>
</svg>
