<?xml version="1.0" encoding="utf-8"?>
<!-- Generator: Adobe Illustrator 18.1.1, SVG Export Plug-In . SVG Version: 6.00 Build 0)  -->
<svg version="1.1" id="Layer_1" xmlns="http://www.w3.org/2000/svg" xmlns:xlink="http://www.w3.org/1999/xlink" x="0px" y="0px"
	 viewBox="0 0 120 100" enable-background="new 0 0 120 100" xml:space="preserve">
<g>
	<path fill="#663494" d="M106.065,75.452h-3.621v-34.32c0-1.739-1.41-3.148-3.148-3.148H54.412v-12.33
		c0-1.676-1.359-3.035-3.035-3.035H16.964c-1.676,0-3.035,1.359-3.035,3.035v28.478c0,1.674,1.359,3.033,3.035,3.033H44.43v-3.792
		H17.722V30.841h32.896v7.142h-2.986c-1.738,0-3.148,1.409-3.148,3.148v34.32h-3.757c-0.002,0.043-0.007,0.086-0.007,0.13v6.558
		c0,1.738,1.409,3.148,3.148,3.148h59.054c1.738,0,3.148-1.41,3.148-3.148v-6.558C106.071,75.538,106.067,75.495,106.065,75.452z
		 M42.048,28.647H39.02V25.73h3.028V28.647z M46.269,28.647H43.24V25.73h3.029V28.647z M50.613,28.647h-3.029V25.73h3.029V28.647z
		 M80.82,80.789H65.74v-1.482h15.08V80.789z M98.509,75.372H48.42V41.918h50.088V75.372z"/>
	<polygon fill="#663494" points="57.771,59.94 61.515,59.94 61.515,64.146 63.783,64.146 63.783,54.092 61.515,54.092 
		61.515,57.954 57.771,57.954 57.771,54.092 55.505,54.092 55.505,64.146 57.771,64.146 	"/>
	<polygon fill="#663494" points="67.727,64.146 69.993,64.146 69.993,56 72.739,56 72.739,54.092 65.012,54.092 65.012,56 
		67.727,56 	"/>
	<path fill="#663494" d="M75.964,60.327c0.06-1.254,0.12-2.805,0.165-4.162h0.029c0.254,1.312,0.583,2.743,0.91,3.937l1.073,3.878
		h1.775l1.224-3.923c0.388-1.178,0.805-2.61,1.133-3.893h0.031c0,1.461,0.044,2.924,0.089,4.131l0.165,3.849h2.207l-0.537-10.055
		h-2.983l-1.06,3.341c-0.342,1.12-0.685,2.447-0.954,3.61h-0.06c-0.224-1.179-0.522-2.431-0.851-3.595l-0.983-3.357h-3.029
		l-0.641,10.055h2.103L75.964,60.327z"/>
	<polygon fill="#663494" points="92.797,62.237 88.799,62.237 88.799,54.092 86.532,54.092 86.532,64.146 92.797,64.146 	"/>
	<polygon fill="#663494" points="27.648,39.82 27.648,38.544 21.845,41.234 21.845,42.271 27.648,44.96 27.648,43.682 
		23.255,41.764 23.255,41.74 	"/>
	<polygon fill="#663494" points="31.133,45.773 33.714,37.027 32.496,37.027 29.915,45.773 	"/>
	<polygon fill="#663494" points="35.787,43.682 35.787,44.96 41.59,42.306 41.59,41.197 35.787,38.544 35.787,39.82 40.274,41.74 
		40.274,41.764 	"/>
	<path fill="#663494" d="M63.132,26.295l-0.908,0.907l2.023,2.021l0.918-0.919c0.675,0.437,1.432,0.757,2.241,0.937v1.132h2.858
		v-1.099c0.854-0.17,1.656-0.495,2.368-0.949l0.871,0.871l2.021-2.022l-0.849-0.847c0.464-0.693,0.803-1.474,0.989-2.311h1.24v-2.86
		h-1.218c-0.178-0.865-0.519-1.671-0.991-2.385l0.905-0.906l-2.02-2.022l-0.919,0.919c-0.719-0.464-1.531-0.798-2.399-0.97v-1.081
		h-2.858v1.115c-0.823,0.183-1.59,0.511-2.274,0.958l-0.965-0.965l-2.021,2.021l0.965,0.965c-0.462,0.707-0.796,1.502-0.971,2.353
		h-1.297v2.86h1.321C62.347,24.841,62.678,25.611,63.132,26.295z M68.914,17.656c2.713,0,4.919,2.189,4.919,4.878
		c0,2.691-2.206,4.879-4.919,4.879c-2.712,0-4.919-2.188-4.919-4.879C63.995,19.845,66.202,17.656,68.914,17.656z"/>
	<path fill="#663494" d="M68.876,26.224c2.052,0,3.721-1.651,3.721-3.681c0-2.029-1.669-3.68-3.721-3.68
		c-2.054,0-3.724,1.651-3.724,3.68C65.152,24.573,66.822,26.224,68.876,26.224z M68.876,20.059c1.391,0,2.524,1.114,2.524,2.484
		c0,1.37-1.133,2.485-2.524,2.485c-1.394,0-2.526-1.115-2.526-2.485C66.35,21.172,67.482,20.059,68.876,20.059z"/>
	<path fill="#663494" d="M76.472,25.881v1.741h0.805c0.111,0.503,0.313,0.972,0.589,1.389l-0.552,0.552l1.232,1.231l0.558-0.559
		c0.412,0.265,0.872,0.461,1.366,0.572v0.689h1.741v-0.669c0.523-0.104,1.009-0.303,1.443-0.579l0.53,0.531l1.232-1.231
		l-0.517-0.517c0.283-0.421,0.491-0.897,0.603-1.408h0.756v-1.741h-0.741c-0.109-0.527-0.316-1.018-0.605-1.454l0.553-0.552
		l-1.232-1.231l-0.558,0.559c-0.44-0.283-0.933-0.486-1.463-0.59v-0.659h-1.741v0.68c-0.5,0.111-0.968,0.312-1.384,0.584
		l-0.589-0.588l-1.232,1.23l0.588,0.589c-0.281,0.43-0.483,0.914-0.591,1.433H76.472z M81.388,23.747
		c1.652,0,2.997,1.334,2.997,2.972c0,1.639-1.345,2.972-2.997,2.972c-1.652,0-2.997-1.333-2.997-2.972
		C78.391,25.081,79.736,23.747,81.388,23.747z"/>
	<ellipse fill="#663494" cx="81.364" cy="26.724" rx="0.809" ry="0.784"/>
</g>
</svg>
