<?xml version="1.0" encoding="utf-8"?>
<!-- Generator: Adobe Illustrator 18.1.1, SVG Export Plug-In . SVG Version: 6.00 Build 0)  -->
<svg version="1.1" id="Layer_1" xmlns="http://www.w3.org/2000/svg" xmlns:xlink="http://www.w3.org/1999/xlink" x="0px" y="0px"
	 viewBox="0 0 120 100" enable-background="new 0 0 120 100" xml:space="preserve">
<g>
	<path fill="#663494" d="M101.932,67.734h-4.647V23.682c0-2.231-1.81-4.041-4.041-4.041H26.932c-2.231,0-4.041,1.81-4.041,4.041
		v44.052h-4.822c-0.003,0.056-0.009,0.11-0.009,0.167v8.417c0,2.231,1.809,4.041,4.041,4.041h75.799c2.231,0,4.041-1.81,4.041-4.041
		v-8.417C101.941,67.844,101.935,67.789,101.932,67.734z M69.529,74.584H50.173v-1.903h19.356V74.584z M92.233,67.631h-64.29V24.693
		h64.29V67.631z"/>
	<path fill="#663494" d="M43.235,52.763l-1.704,1.702l3.798,3.795l1.723-1.725c1.268,0.82,2.689,1.421,4.208,1.76v2.127h5.367
		v-2.063c1.604-0.32,3.11-0.929,4.446-1.782l1.635,1.635l3.795-3.796l-1.593-1.591c0.871-1.299,1.509-2.766,1.858-4.337h2.329v-5.37
		H66.81c-0.333-1.625-0.974-3.139-1.86-4.479l1.699-1.702l-3.792-3.796l-1.726,1.725c-1.35-0.871-2.874-1.499-4.504-1.821v-2.031
		h-5.367v2.093c-1.546,0.344-2.985,0.959-4.269,1.8l-1.813-1.813l-3.795,3.794l1.813,1.811c-0.868,1.327-1.495,2.82-1.823,4.418
		h-2.435v5.37h2.48C41.761,50.032,42.383,51.477,43.235,52.763z M54.091,36.54c5.094,0,9.236,4.11,9.236,9.159
		c0,5.052-4.142,9.159-9.236,9.159c-5.092,0-9.236-4.107-9.236-9.159C44.855,40.65,48.999,36.54,54.091,36.54z"/>
	<path fill="#663494" d="M54.02,48.134c1.374,0,2.493-1.085,2.493-2.418s-1.119-2.418-2.493-2.418c-1.376,0-2.496,1.085-2.496,2.418
		S52.644,48.134,54.02,48.134z"/>
	<path fill="#663494" d="M77.467,57.781c2.347,0,4.255-1.89,4.255-4.212c0-2.322-1.908-4.21-4.255-4.21
		c-2.35,0-4.258,1.888-4.258,4.21C73.209,55.891,75.117,57.781,77.467,57.781z M77.467,50.729c1.593,0,2.887,1.272,2.887,2.84
		c0,1.568-1.294,2.844-2.887,2.844c-1.596,0-2.89-1.276-2.89-2.844C74.577,52.001,75.871,50.729,77.467,50.729z"/>
	<path fill="#663494" d="M68.12,52.064v3.268h1.511c0.209,0.945,0.588,1.825,1.106,2.608L69.7,58.977l2.313,2.31l1.048-1.048
		c0.773,0.498,1.638,0.865,2.564,1.072v1.294h3.268v-1.257c0.982-0.194,1.895-0.568,2.71-1.086l0.995,0.996l2.313-2.31l-0.971-0.971
		c0.532-0.79,0.921-1.683,1.133-2.644h1.418v-3.268H85.1c-0.204-0.99-0.593-1.911-1.135-2.729l1.037-1.037l-2.313-2.312
		l-1.048,1.049c-0.826-0.532-1.752-0.913-2.747-1.109V44.69h-3.268v1.277c-0.94,0.209-1.818,0.585-2.599,1.096l-1.106-1.105
		l-2.313,2.31l1.104,1.105c-0.527,0.807-0.908,1.715-1.109,2.691H68.12z M77.351,48.057c3.102,0,5.626,2.505,5.626,5.581
		c0,3.075-2.525,5.579-5.626,5.579c-3.102,0-5.626-2.504-5.626-5.579C71.725,50.562,74.249,48.057,77.351,48.057z"/>
</g>
</svg>
